<svg width="26" height="32" viewBox="0 0 26 32" fill="none" xmlns="http://www.w3.org/2000/svg">
<path d="M15.9282 1.43057C15.6894 0.959282 15.3066 0.57642 14.8353 0.337628C14.598 0.21833 14.345 0.132948 14.0839 0.0839815C13.8157 0.0352127 13.544 0.00828025 13.2715 0.00344912C13.0213 -0.0043114 12.6897 0.00344912 12.4263 0.00344912H3.76467C3.65235 0.00344912 3.54166 0.0034491 3.43178 0.00378947C3.0146 -0.00837984 2.59719 0.0184676 2.18499 0.0839815C1.92386 0.132991 1.67088 0.21837 1.43345 0.337628C0.962396 0.576626 0.579702 0.959439 0.34085 1.43057C0.22164 1.66792 0.136262 1.9208 0.0872037 2.18184C0.0461021 2.40241 0.0210755 2.62567 0.0123215 2.84986C0.0017018 3.07124 0.000340374 3.3112 0 3.53932V3.83946V28.153C0 28.2544 0 28.3544 0 28.4532C0 28.6813 0.0017018 28.9213 0.0123215 29.1427C0.0210844 29.3669 0.0461109 29.5902 0.0872037 29.8107C0.136257 30.0718 0.221635 30.3248 0.34085 30.5622C0.579741 31.0334 0.962542 31.4163 1.43372 31.6552C1.67115 31.7744 1.92413 31.8598 2.18527 31.9088C2.45344 31.9576 2.72513 31.9846 2.99767 31.9895C3.24778 31.9972 3.57951 31.9963 3.84296 31.9963C7.05676 31.9963 8.16271 31.9986 11.3764 31.9986C11.2959 31.9305 11.2267 31.8362 11.1246 31.7519C10.9903 31.6122 10.8686 31.4608 10.761 31.2996C10.6299 31.1088 10.5275 30.8999 10.4569 30.6795C10.3855 30.4533 10.3303 30.2223 10.2917 29.9882C10.2536 29.7857 10.2306 29.5806 10.2229 29.3746C10.2128 29.1712 10.2116 28.9509 10.2112 28.7415C10.2112 28.6498 10.2112 28.5573 10.2112 28.4634V5.58095C10.2112 5.48701 10.2112 5.39456 10.2112 5.30293C10.2112 5.0934 10.2128 4.87311 10.2229 4.66984C10.2308 4.46389 10.2538 4.2588 10.2917 4.05621C10.3367 3.81601 10.4152 3.58333 10.525 3.36498C10.7446 2.93148 11.0968 2.57929 11.5303 2.35958C11.7487 2.24985 11.9815 2.17132 12.2217 2.12629C12.5969 2.06425 12.9771 2.03747 13.3574 2.0463C13.467 2.04569 13.578 2.04569 13.6907 2.04569H16.2459M7.03532 4.55139C7.03532 4.73104 7.03532 4.85609 7.03498 4.96065C7.03464 5.06344 7.03362 5.14861 7.03096 5.22682C7.02752 5.3801 7.01027 5.53275 6.97943 5.68292C6.9466 5.83971 6.89219 5.99119 6.81775 6.13303C6.66303 6.42654 6.42316 6.66641 6.12965 6.82113C5.98778 6.89547 5.83635 6.9499 5.67961 6.98288C5.52943 7.01366 5.37678 7.03088 5.22351 7.03434C5.14523 7.03707 5.06013 7.03802 4.95727 7.03829C4.85271 7.03877 4.72759 7.0387 4.54794 7.0387H3.6209C3.44125 7.0387 3.31612 7.0387 3.21156 7.03829C3.1087 7.03829 3.02361 7.03707 2.94532 7.03434C2.79205 7.03088 2.63941 7.01366 2.48922 6.98288C2.33249 6.9499 2.18105 6.89547 2.03918 6.82113C1.74567 6.66641 1.50581 6.42654 1.35108 6.13303C1.27664 5.99119 1.22223 5.83971 1.1894 5.68292C1.15856 5.53275 1.14132 5.3801 1.13787 5.22682C1.13521 5.14861 1.13419 5.06344 1.13385 4.96065C1.13351 4.85602 1.13351 4.73104 1.13351 4.55139V3.62448C1.13351 3.44476 1.13351 3.31978 1.13385 3.21522C1.13385 3.11229 1.13521 3.02712 1.13787 2.94897C1.14132 2.7957 1.15857 2.64305 1.1894 2.49287C1.22234 2.33612 1.27674 2.18465 1.35108 2.04276C1.50574 1.74923 1.7455 1.50929 2.03891 1.35439C2.18078 1.28005 2.33221 1.22562 2.48895 1.19265C2.63913 1.16187 2.79178 1.14464 2.94505 1.14118C3.02334 1.13846 3.10843 1.13757 3.21129 1.13717H3.62062H4.54766H4.957C5.05986 1.13757 5.14495 1.13846 5.2231 1.14118C5.37651 1.14462 5.52929 1.16184 5.67961 1.19265C5.83635 1.22562 5.98778 1.28005 6.12965 1.35439C6.42312 1.50917 6.66297 1.74902 6.81775 2.04249C6.89218 2.18434 6.94659 2.33582 6.97943 2.4926C7.01027 2.64278 7.02751 2.79543 7.03096 2.9487C7.03362 3.02692 7.03464 3.11208 7.03498 3.21494C7.03532 3.31957 7.03532 3.44456 7.03532 3.62421V4.55139ZM23.826 14.5088V29.0658C23.8025 29.3226 23.6791 29.5599 23.4823 29.7265C23.2855 29.8931 23.031 29.9756 22.7739 29.9563H13.986C13.7289 29.9756 13.4745 29.8931 13.2777 29.7265C13.0809 29.5599 12.9574 29.3226 12.934 29.0658V14.5123C12.9575 14.2545 13.0814 14.0164 13.2789 13.8492C13.4764 13.6819 13.7318 13.5991 13.9898 13.6184H22.7741C23.0312 13.5991 23.2856 13.6816 23.4823 13.8482C23.6791 14.0148 23.8025 14.2521 23.826 14.5088ZM25.8682 6.00859C25.8679 5.79906 25.8667 5.57877 25.8569 5.3755C25.8488 5.16956 25.8257 4.96448 25.7879 4.76187C25.7428 4.52168 25.6643 4.28899 25.5546 4.07064C25.3348 3.63725 24.9826 3.28512 24.5492 3.06531C24.3308 2.95551 24.0981 2.87696 23.8578 2.83195C23.6112 2.78701 23.3613 2.7622 23.1106 2.75775C22.8804 2.75095 22.5753 2.75149 22.3329 2.75149H14.3546C14.2418 2.75149 14.1309 2.75149 14.021 2.75203C13.6408 2.74315 13.2606 2.76991 12.8854 2.83195C12.6451 2.87698 12.4124 2.95553 12.194 3.06531C11.7604 3.28492 11.4083 3.63704 11.1886 4.07051C11.0788 4.2889 11.0003 4.52163 10.9553 4.76187C10.9174 4.96447 10.8944 5.16955 10.8864 5.3755C10.8764 5.57891 10.8922 5.7992 10.8919 6.00859V6.28668V28.4632V28.7414C10.8919 28.9509 10.8764 29.1712 10.8864 29.3745C10.8944 29.5804 10.9174 29.7855 10.9553 29.9881C11.0003 30.2283 11.0788 30.461 11.1886 30.6794C11.4082 31.1129 11.7604 31.465 12.1939 31.6847C12.4123 31.7944 12.6451 31.8729 12.8853 31.918C13.132 31.963 13.382 31.9878 13.6327 31.9922C13.8627 31.9993 14.1679 31.9984 14.4102 31.9984H22.3886H22.7221C23.1023 32.0072 23.4824 31.9804 23.8575 31.9184C24.0978 31.8733 24.3305 31.7948 24.549 31.6851C24.9823 31.4652 25.3345 31.1131 25.5543 30.6797C25.6641 30.4613 25.7426 30.2286 25.7876 29.9884C25.8254 29.7858 25.8485 29.5808 25.8566 29.3748C25.8664 29.1714 25.8676 28.9511 25.8679 28.7417C25.8679 28.65 25.8679 28.5575 25.8679 28.4636V6.28675C25.8682 6.19274 25.8682 6.10029 25.8682 6.00859ZM12.0247 5.92922C12.0252 5.8267 12.026 5.74181 12.0287 5.66373C12.0321 5.51094 12.0492 5.35877 12.0799 5.20906C12.1129 5.05288 12.1672 4.90197 12.2413 4.76058C12.3953 4.46824 12.6341 4.22936 12.9265 4.07541C13.0679 4.00132 13.2187 3.94708 13.3749 3.91421C13.5247 3.88353 13.6768 3.86638 13.8297 3.86295C13.9074 3.86029 13.9922 3.85941 14.0947 3.859C14.199 3.85859 14.3236 3.859 14.5026 3.859H15.4499H15.7598C15.8596 3.859 15.9698 3.859 16.0699 3.86152C16.2767 3.86206 16.4827 3.88849 16.6829 3.94021C16.9108 4.00132 17.1228 4.11071 17.3046 4.26098C17.4865 4.41124 17.6339 4.59885 17.7368 4.81109C17.8336 5.01591 17.8926 5.23651 17.9111 5.46229C17.9216 5.56992 17.9254 5.67768 17.9269 5.80267C17.9284 5.9169 17.9281 6.09505 17.9281 6.33712V7.2852C17.9281 7.4641 17.9281 7.58868 17.9278 7.69283C17.9273 7.79528 17.9264 7.88017 17.9237 7.95798C17.9203 8.11077 17.9031 8.26294 17.8724 8.41265C17.8396 8.56884 17.7854 8.71976 17.7113 8.86113C17.5571 9.15351 17.3182 9.39246 17.0258 9.54664C16.8844 9.62069 16.7336 9.67491 16.5774 9.70777C16.4277 9.73842 16.2755 9.75556 16.1227 9.75897C16.0449 9.76169 15.96 9.76264 15.8576 9.76298C15.7532 9.76339 15.6287 9.76298 15.4498 9.76298H14.5026C14.2604 9.76298 14.0823 9.76298 13.9681 9.76183C13.8431 9.76026 13.7354 9.75645 13.6277 9.74603C13.4019 9.72765 13.1813 9.66856 12.9765 9.57163C12.8117 9.4918 12.6614 9.38494 12.5318 9.25549C12.328 9.05086 12.1811 8.79657 12.1057 8.51776C12.054 8.31748 12.0275 8.11152 12.0269 7.90468C12.0244 7.80468 12.0244 7.69446 12.0244 7.59467C12.0244 7.49147 12.0244 7.38847 12.0244 7.28493V6.33685C12.0244 6.15788 12.0244 6.0333 12.0247 5.92922ZM24.5067 29.0658C24.4842 29.5036 24.2893 29.9147 23.9646 30.2091C23.6399 30.5036 23.2118 30.6574 22.7739 30.6371H13.986C13.5482 30.6574 13.12 30.5036 12.7953 30.2091C12.4706 29.9147 12.2757 29.5036 12.2532 29.0658V14.5123C12.2758 14.0736 12.4711 13.6616 12.7965 13.3665C13.122 13.0714 13.551 12.9172 13.9898 12.9376H22.7741C23.2119 12.9173 23.64 13.0712 23.9647 13.3656C24.2894 13.66 24.4842 14.0711 24.5067 14.5088V29.0658Z" fill="#081C15"/>
</svg>
