<svg width="16" height="32" viewBox="0 0 16 32" fill="none" xmlns="http://www.w3.org/2000/svg">
<path d="M11 3C11 2.60603 10.9224 2.21593 10.7716 1.85195C10.6209 1.48797 10.3999 1.15726 10.1213 0.87868C9.84274 0.600104 9.51203 0.379125 9.14805 0.228361C8.78407 0.0775973 8.39397 -1.72208e-08 8 0C7.60603 1.72208e-08 7.21593 0.0775973 6.85195 0.228361C6.48797 0.379126 6.15726 0.600104 5.87868 0.87868C5.6001 1.15726 5.37913 1.48797 5.22836 1.85195C5.0776 2.21593 5 2.60603 5 3L11 3Z" fill="#081C15"/>
<path d="M3 9C3 7.89543 3.89543 7 5 7H11C12.1046 7 13 7.89543 13 9V27C13 28.1046 12.1046 29 11 29H5C3.89543 29 3 28.1046 3 27V9Z" fill="#081C15"/>
<path d="M10.3097 2.04329C10.3709 2.19107 10.4177 2.34403 10.4495 2.5L5.55051 2.5C5.58235 2.34403 5.62909 2.19107 5.6903 2.04329C5.81594 1.73998 6.00009 1.46438 6.23223 1.23223C6.46438 1.00009 6.73998 0.815938 7.04329 0.690301C7.34661 0.564664 7.6717 0.5 8 0.5C8.32831 0.5 8.65339 0.564664 8.95671 0.690301C9.26002 0.815938 9.53562 1.00009 9.76777 1.23223C9.99991 1.46438 10.1841 1.73998 10.3097 2.04329ZM0.5 8C0.5 6.067 2.067 4.5 4 4.5H12C13.933 4.5 15.5 6.067 15.5 8V28C15.5 29.933 13.933 31.5 12 31.5H4C2.067 31.5 0.5 29.933 0.5 28V8ZM3.5 9C3.5 8.17157 4.17157 7.5 5 7.5H11C11.8284 7.5 12.5 8.17157 12.5 9V27C12.5 27.8284 11.8284 28.5 11 28.5H5C4.17157 28.5 3.5 27.8284 3.5 27V9ZM5 6.5C3.61929 6.5 2.5 7.61929 2.5 9V27C2.5 28.3807 3.61929 29.5 5 29.5H11C12.3807 29.5 13.5 28.3807 13.5 27V9C13.5 7.61929 12.3807 6.5 11 6.5H5Z" stroke="#081C15"/>
</svg>
