<svg width="16" height="16" viewBox="0 0 16 16" fill="none" xmlns="http://www.w3.org/2000/svg">
<g clip-path="url(#clip0_208_3657)">
<mask id="mask0_208_3657" style="mask-type:luminance" maskUnits="userSpaceOnUse" x="0" y="0" width="16" height="16">
<path d="M16 0H0V16H16V0Z" fill="white"/>
</mask>
<g mask="url(#mask0_208_3657)">
<path d="M12.0127 2.67322H0.479473C0.214667 2.67322 0 2.90224 0 3.18474V15.4885C0 15.771 0.214667 16 0.479473 16H12.0127C12.2775 16 12.4922 15.771 12.4922 15.4885V3.18474C12.4922 2.90224 12.2775 2.67322 12.0127 2.67322Z" fill="#ECECEC"/>
<path d="M6.37315 13.8664C6.33096 13.9462 6.26047 13.9466 6.21684 13.8664C5.00234 11.6591 1.77597 6.97559 1.74336 6.92853C1.71795 6.89171 1.85028 6.69938 2.03824 6.50193L2.4549 6.06202C2.55286 5.96533 2.67826 5.90628 2.81123 5.89423C2.9442 5.88219 3.07714 5.91783 3.18897 5.99551L6.27534 8.2974C8.46654 5.26403 10.5105 3.18212 11.8439 1.96469C13.302 0.634727 14.2514 0.0209038 14.261 0.015277C14.2706 0.00965026 14.5007 0.00146484 14.762 0.00146484H15.6668C15.9305 0.00146484 16.0667 0.0776845 15.9688 0.170271C11.3885 4.52131 6.42302 13.7733 6.37315 13.8664Z" fill="#777373"/>
</g>
</g>
<defs>
<clipPath id="clip0_208_3657">
<rect width="16" height="16" fill="white"/>
</clipPath>
</defs>
</svg>
