<svg width="34" height="34" viewBox="0 0 34 34" fill="none" xmlns="http://www.w3.org/2000/svg">
<path d="M33 8.11111C33 12.04 25.8356 15.2222 17 15.2222C8.16444 15.2222 1 12.04 1 8.11111M33 8.11111C33 4.18222 25.8356 1 17 1C8.16444 1 1 4.18222 1 8.11111M33 8.11111V17M1 8.11111V17M33 17C33 20.9289 25.8356 24.1111 17 24.1111C8.16444 24.1111 1 20.9289 1 17M33 17V25.8889C33 29.8178 25.8356 33 17 33C8.16444 33 1 29.8178 1 25.8889V17" stroke="#081C15" stroke-width="2" stroke-linecap="round" stroke-linejoin="round"/>
</svg>
