<svg width="39" height="32" viewBox="0 0 39 32" fill="none" xmlns="http://www.w3.org/2000/svg">
<path d="M12.5405 0H4.75676C3.49565 0.00151061 2.28663 0.503152 1.39489 1.39489C0.503153 2.28663 0.00151061 3.49565 0 4.75676L0 27.2432C0.00157912 28.5043 0.503243 29.7133 1.39497 30.605C2.28669 31.4968 3.49567 31.9984 4.75676 32H12.5405C13.8016 31.9984 15.0106 31.4968 15.9023 30.605C16.7941 29.7133 17.2957 28.5043 17.2973 27.2432V4.75676C17.2958 3.49565 16.7941 2.28663 15.9024 1.39489C15.0107 0.503152 13.8016 0.00151061 12.5405 0ZM15.5676 27.2432C15.5666 28.0458 15.2474 28.8151 14.6799 29.3826C14.1124 29.9501 13.3431 30.2693 12.5405 30.2703H4.75676C3.95423 30.2693 3.18486 29.9501 2.61739 29.3826C2.04992 28.8151 1.73069 28.0458 1.72973 27.2432V4.75676C1.73069 3.95423 2.04992 3.18486 2.61739 2.61739C3.18486 2.04992 3.95423 1.73069 4.75676 1.72973H12.5405C13.3431 1.73069 14.1124 2.04992 14.6799 2.61739C15.2474 3.18486 15.5666 3.95423 15.5676 4.75676V27.2432ZM38.0541 20.3243H38.9189V25.5135H38.0541V20.3243ZM27.6757 0H32.8649V0.864865H27.6757V0ZM38.0541 13.4054H38.9189V18.5946H38.0541V13.4054ZM27.6757 31.1351H32.8649V32H27.6757V31.1351ZM22.4865 18.5946H21.6216V13.4054H22.4865V18.5946ZM22.4865 11.6757H21.6216V6.48649H22.4865V11.6757ZM22.4865 25.5135H21.6216V20.3243H22.4865V25.5135ZM34.5946 0.908108V0.0218811C35.7756 0.130796 36.8734 0.676536 37.6733 1.55228C38.4731 2.42803 38.9173 3.57074 38.9189 4.75676H38.0541C38.0523 3.80191 37.6983 2.88128 37.06 2.17115C36.4217 1.46102 35.5438 1.01131 34.5946 0.908108ZM38.0541 27.2432H38.9189C38.9173 28.4293 38.4731 29.572 37.6733 30.4477C36.8734 31.3235 35.7756 31.8692 34.5946 31.9781V31.0919C35.5438 30.9887 36.4217 30.539 37.06 29.8288C37.6983 29.1187 38.0523 28.1981 38.0541 27.2432ZM25.9459 0.0218811V0.908108C24.9967 1.01131 24.1189 1.46102 23.4805 2.17115C22.8422 2.88128 22.4883 3.80191 22.4865 4.75676H21.6216C21.6233 3.57074 22.0675 2.42803 22.8673 1.55228C23.6671 0.676536 24.7649 0.130796 25.9459 0.0218811ZM25.9459 31.0919V31.9785C24.7649 31.8695 23.667 31.3238 22.8672 30.4479C22.0673 29.5721 21.6232 28.4293 21.6216 27.2432H22.4865C22.4883 28.1981 22.8422 29.1187 23.4805 29.8288C24.1189 30.539 24.9967 30.9887 25.9459 31.0919ZM38.0541 6.48649H38.9189V11.6757H38.0541V6.48649Z" fill="#081C15"/>
</svg>
