<svg width="22" height="33" viewBox="0 0 22 33" fill="none" xmlns="http://www.w3.org/2000/svg">
<path d="M21 33V19.1639C21 16.9548 19.2091 15.1639 17 15.1639L5 15.1639C2.79086 15.1639 1 16.9548 1 19.1639V33" stroke="#081C15" stroke-width="2"/>
<path d="M13.2572 10.7304C13.6557 10.6828 13.9483 10.3155 13.8065 9.93999C13.639 9.49667 13.3677 9.09596 13.0109 8.7737C12.4727 8.28765 11.7768 8.01296 11.0518 8.00045C10.3268 7.98793 9.62174 8.23844 9.06717 8.70563C8.69947 9.01538 8.41441 9.40648 8.23176 9.84376C8.07705 10.2142 8.3568 10.5914 8.75349 10.6527C9.15019 10.714 9.51015 10.4231 9.74448 10.0972C9.81847 9.99433 9.90535 9.90019 10.0037 9.81734C10.2896 9.57652 10.653 9.4474 11.0267 9.45385C11.4004 9.4603 11.7591 9.60189 12.0365 9.85243C12.132 9.93862 12.2155 10.0357 12.2859 10.1411C12.5089 10.4749 12.8586 10.778 13.2572 10.7304Z" fill="#081C15"/>
<path d="M16.0684 8.85944C16.449 8.73626 16.6691 8.33322 16.5233 7.96079C16.1002 6.8808 15.4133 5.94051 14.531 5.2448C13.4686 4.40698 12.1816 3.97021 10.8678 4.00158C9.554 4.03294 8.28604 4.53071 7.25868 5.41842C6.406 6.1552 5.75821 7.12677 5.37941 8.22524C5.24866 8.60439 5.48717 8.99873 5.87414 9.10411C6.2824 9.21529 6.69644 8.962 6.8525 8.5687C7.14463 7.83242 7.60094 7.18131 8.18503 6.67661C8.95801 6.0087 9.91203 5.63418 10.9005 5.61058C11.889 5.58698 12.8574 5.9156 13.6568 6.54598C14.2588 7.02076 14.74 7.64695 15.0618 8.36563C15.2357 8.7541 15.6635 8.99051 16.0684 8.85944Z" fill="#081C15"/>
<path d="M18.9105 6.63647C19.3042 6.51884 19.5309 6.10288 19.3811 5.72025C18.7572 4.12585 17.6891 2.73721 16.2966 1.72357C14.7029 0.563515 12.7724 -0.041245 10.8017 0.00218554C8.831 0.0456161 6.92905 0.734835 5.38802 1.96397C4.04148 3.03798 3.03557 4.47232 2.48251 6.09266C2.34979 6.48152 2.59458 6.88709 2.99307 6.98726C3.39155 7.08743 3.79229 6.84387 3.93136 6.45724C4.40074 5.15238 5.22417 3.99793 6.31583 3.12721C7.60209 2.10128 9.18959 1.52601 10.8345 1.48976C12.4794 1.45351 14.0907 1.95829 15.4209 2.92655C16.5499 3.74833 17.4233 4.86539 17.9498 6.1483C18.1057 6.52843 18.5168 6.7541 18.9105 6.63647Z" fill="#081C15"/>
<rect x="7" y="18" width="7" height="2" rx="1" fill="#081C15"/>
</svg>
