<svg width="31" height="32" viewBox="0 0 31 32" fill="none" xmlns="http://www.w3.org/2000/svg">
<path d="M31 1L5 0.999999C2.79086 0.999999 1 2.79086 1 5L0.999999 27C0.999999 29.2091 2.79086 31 5 31L31 31" stroke="#081C15" stroke-width="2"/>
<rect x="5" y="7" width="3" height="3" fill="#081C15"/>
<rect x="10.75" y="7" width="3" height="3" fill="#081C15"/>
<rect x="16.5" y="7" width="3" height="3" fill="#081C15"/>
<rect x="22.25" y="7" width="3" height="3" fill="#081C15"/>
<rect x="28" y="7" width="3" height="3" fill="#081C15"/>
<rect x="5" y="17" width="3" height="3" fill="#081C15"/>
<rect x="10.7002" y="17" width="3" height="3" fill="#081C15"/>
<rect x="16.4004" y="17" width="3" height="3" fill="#081C15"/>
<rect x="22.0996" y="17" width="3" height="3" fill="#081C15"/>
<rect x="27.7998" y="17" width="3" height="3" fill="#081C15"/>
<rect x="5" y="12" width="3" height="3" fill="#081C15"/>
<rect x="10.7002" y="12" width="3" height="3" fill="#081C15"/>
<rect x="16.4004" y="12" width="3" height="3" fill="#081C15"/>
<rect x="22.0996" y="12" width="3" height="3" fill="#081C15"/>
<rect x="27.7998" y="12" width="3" height="3" fill="#081C15"/>
<rect x="5" y="22" width="3" height="3" fill="#081C15"/>
<rect x="11" y="22" width="3" height="3" fill="#081C15"/>
<rect x="17" y="22" width="14" height="3" fill="#081C15"/>
</svg>
