<svg width="40" height="21" viewBox="0 0 40 21" fill="none" xmlns="http://www.w3.org/2000/svg">
<path d="M40 19.2308C39.9595 19.3018 39.7295 19.4794 39.6646 19.4794C39.6646 19.4794 38.0721 20.4413 36.0964 20.5731C34.1218 20.705 29.4885 20.767 29.4885 20.767H9.57408C9.57408 20.767 9.55977 20.7678 9.53316 20.7678C9.114 20.7678 5.58723 20.6988 3.73123 20.5731C3.37177 20.5488 3.03208 20.4914 2.70515 20.4231C1.87023 20.2487 1.16646 19.9742 0.713539 19.7625C0.369386 19.6017 0.162614 19.4794 0.162614 19.4794C0.097999 19.4794 0.0404615 19.3018 0 19.2308H3.84615V1.15385C3.84615 0.388 4.24769 0 5 0H35C35.7519 0 36.1538 0.416538 36.1538 1.15385V19.2308H40ZM34.6154 1.53846H5.38462V19.2308H34.6154V1.53846Z" fill="#081C15"/>
</svg>
