<svg width="30" height="34" viewBox="0 0 30 34" fill="none" xmlns="http://www.w3.org/2000/svg">
<path d="M20 1H4C2.34315 1 1 2.34315 1 4V30C1 31.6569 2.34315 33 4 33H20C21.6569 33 23 31.6569 23 30V4C23 2.34315 21.6569 1 20 1Z" stroke="#081C15" stroke-width="2" stroke-linecap="round"/>
<path d="M26 7H13C11.3431 7 10 8.34315 10 10V30C10 31.6569 11.3431 33 13 33H26C27.6569 33 29 31.6569 29 30V10C29 8.34315 27.6569 7 26 7Z" fill="white" stroke="#081C15" stroke-width="2" stroke-linecap="round"/>
</svg>
