<svg width="22" height="33" viewBox="0 0 22 33" fill="none" xmlns="http://www.w3.org/2000/svg">
<path d="M1 0V13.8361C1 16.0452 2.79086 17.8361 5 17.8361H17C19.2091 17.8361 21 16.0452 21 13.8361V0" stroke="#081C15" stroke-width="2"/>
<path d="M8.74285 22.2696C8.34427 22.3172 8.05167 22.6845 8.19351 23.06C8.36096 23.5033 8.63235 23.904 8.98913 24.2263C9.52725 24.7123 10.2232 24.987 10.9482 24.9996C11.6732 25.0121 12.3783 24.7616 12.9328 24.2944C13.3005 23.9846 13.5856 23.5935 13.7682 23.1562C13.923 22.7858 13.6432 22.4086 13.2465 22.3473C12.8498 22.286 12.4898 22.5769 12.2555 22.9028C12.1815 23.0057 12.0947 23.0998 11.9963 23.1827C11.7104 23.4235 11.347 23.5526 10.9733 23.5462C10.5996 23.5397 10.2409 23.3981 9.96348 23.1476C9.86805 23.0614 9.78447 22.9643 9.71408 22.8589C9.49113 22.5251 9.14142 22.222 8.74285 22.2696Z" fill="#081C15"/>
<path d="M5.93157 24.1406C5.55103 24.2637 5.33086 24.6668 5.47675 25.0392C5.8998 26.1192 6.58671 27.0595 7.46896 27.7552C8.53142 28.593 9.81839 29.0298 11.1322 28.9984C12.446 28.9671 13.714 28.4693 14.7413 27.5816C15.594 26.8448 16.2418 25.8732 16.6206 24.7748C16.7513 24.3956 16.5128 24.0013 16.1259 23.8959C15.7176 23.7847 15.3036 24.038 15.1475 24.4313C14.8554 25.1676 14.3991 25.8187 13.815 26.3234C13.042 26.9913 12.088 27.3658 11.0995 27.3894C10.111 27.413 9.14264 27.0844 8.34324 26.454C7.74115 25.9792 7.25998 25.3531 6.93819 24.6344C6.76425 24.2459 6.33651 24.0095 5.93157 24.1406Z" fill="#081C15"/>
<path d="M3.08951 26.3635C2.69583 26.4812 2.46914 26.8971 2.61886 27.2798C3.24277 28.8742 4.31089 30.2628 5.70344 31.2764C7.29713 32.4365 9.22759 33.0412 11.1983 32.9978C13.169 32.9544 15.0709 32.2652 16.612 31.036C17.9585 29.962 18.9644 28.5277 19.5175 26.9073C19.6502 26.5185 19.4054 26.1129 19.0069 26.0127C18.6084 25.9126 18.2077 26.1561 18.0686 26.5428C17.5993 27.8476 16.7758 29.0021 15.6842 29.8728C14.3979 30.8987 12.8104 31.474 11.1655 31.5102C9.52062 31.5465 7.90931 31.0417 6.5791 30.0734C5.45014 29.2517 4.57665 28.1346 4.05025 26.8517C3.89427 26.4716 3.4832 26.2459 3.08951 26.3635Z" fill="#081C15"/>
</svg>
