<svg width="34" height="41" viewBox="0 0 34 41" fill="none" xmlns="http://www.w3.org/2000/svg">
<path d="M14.2245 40.5739H5.27808H4.96654C4.88369 40.5739 4.80137 40.5737 4.71958 40.5731C4.28901 40.5808 3.85866 40.5485 3.43403 40.4769C3.14345 40.4223 2.86196 40.3273 2.59776 40.1946C2.07345 39.9286 1.64743 39.5026 1.38142 38.9784C1.24869 38.7142 1.15374 38.4327 1.09935 38.1422C1.02305 37.6766 0.990573 37.2048 1.00235 36.7332V36.4862C1.00235 36.4238 1.00235 36.361 1.00235 36.2977V8.64446C1.00235 8.58114 1.00235 8.5183 1.00235 8.45594C1.00235 8.37297 1.00235 8.29066 1.00235 8.20898C0.990576 7.73732 1.02305 7.26559 1.09935 6.79999C1.15375 6.50943 1.2487 6.22795 1.38142 5.96381C1.6474 5.43962 2.07332 5.0137 2.59751 4.74772C2.86171 4.61502 3.1432 4.52002 3.43378 4.46548C3.73214 4.41116 4.03443 4.38117 4.33766 4.37581C4.55843 4.36899 4.83595 4.36823 5.08753 4.36823H5.27808H12.7487C12.7442 4.52754 12.7376 4.686 12.737 4.84733V4.97548V5.09571V5.21023H5.27808H5.18664H5.08753C4.84479 5.21023 4.5767 5.21073 4.36342 5.21738C4.10576 5.22118 3.84885 5.2461 3.59527 5.2919C3.38146 5.33137 3.17429 5.40079 2.97986 5.4981C2.61401 5.68326 2.31681 5.98036 2.13155 6.34616C2.03442 6.54036 1.96514 6.74728 1.92577 6.96081C1.86023 7.37435 1.83297 7.79305 1.84435 8.21159V8.45577V8.64429V36.2977V36.4834V36.7325C1.83303 37.1502 1.86029 37.568 1.92577 37.9806C1.96506 38.1945 2.0344 38.4017 2.13172 38.5962C2.31678 38.962 2.61388 39.2591 2.97969 39.4441C3.17413 39.5414 3.3813 39.6108 3.5951 39.6503C3.96863 39.7112 4.34691 39.7382 4.72531 39.7309L4.96705 39.7319H5.27808H13.4382C13.645 40.0594 13.912 40.3451 14.2245 40.5739ZM11.5996 5.70389C11.8036 5.70389 11.9993 5.78494 12.1436 5.92922C12.2879 6.07349 12.3689 6.26918 12.3689 6.47321C12.3689 6.67725 12.2879 6.87294 12.1436 7.01721C11.9993 7.16149 11.8036 7.24254 11.5996 7.24254H8.08629C7.88225 7.24254 7.68657 7.16149 7.54229 7.01721C7.39802 6.87294 7.31696 6.67725 7.31696 6.47321C7.31696 6.26918 7.39802 6.07349 7.54229 5.92922C7.68657 5.78494 7.88225 5.70389 8.08629 5.70389H11.5996ZM11.6436 6.09432C11.5687 6.09432 11.4954 6.11654 11.4331 6.15817C11.3708 6.19981 11.3223 6.25898 11.2936 6.32822C11.2649 6.39745 11.2574 6.47363 11.272 6.54713C11.2866 6.62063 11.3227 6.68815 11.3757 6.74114C11.4287 6.79412 11.4962 6.83021 11.5697 6.84483C11.6432 6.85945 11.7194 6.85195 11.7886 6.82327C11.8579 6.79459 11.917 6.74603 11.9587 6.68372C12.0003 6.62141 12.0225 6.54815 12.0225 6.47321C12.0225 6.37273 11.9826 6.27635 11.9115 6.20529C11.8405 6.13424 11.7441 6.09432 11.6436 6.09432ZM25.8407 3.10524C25.8407 3.30926 25.7597 3.50492 25.6154 3.64919C25.4711 3.79346 25.2755 3.87453 25.0715 3.87457H21.5582C21.3541 3.87457 21.1585 3.79352 21.0142 3.64924C20.8699 3.50496 20.7889 3.30928 20.7889 3.10524C20.7889 2.9012 20.8699 2.70552 21.0142 2.56124C21.1585 2.41697 21.3541 2.33591 21.5582 2.33591H25.0715C25.2755 2.33594 25.4712 2.417 25.6154 2.56127C25.7597 2.70555 25.8407 2.90122 25.8407 3.10524ZM25.4942 3.10524C25.4942 3.0303 25.4719 2.95705 25.4303 2.89474C25.3887 2.83243 25.3295 2.78386 25.2603 2.75519C25.191 2.72651 25.1148 2.71901 25.0413 2.73363C24.9678 2.74825 24.9003 2.78433 24.8473 2.83732C24.7944 2.89031 24.7583 2.95782 24.7436 3.03132C24.729 3.10482 24.7365 3.18101 24.7652 3.25024C24.7939 3.31947 24.8425 3.37865 24.9048 3.42028C24.9671 3.46192 25.0403 3.48414 25.1153 3.48414C25.2158 3.48414 25.3121 3.44422 25.3832 3.37316C25.4542 3.30211 25.4942 3.20573 25.4942 3.10524ZM32.9977 5.0979V36.4763C32.9977 36.5595 32.9977 36.6419 32.9972 36.7238C33.0092 37.1966 32.9767 37.6695 32.9002 38.1363C32.8455 38.4275 32.7502 38.7096 32.6172 38.9744C32.3507 39.5001 31.9236 39.9271 31.3979 40.1935C31.1332 40.3266 30.8511 40.4218 30.5598 40.4764C30.2607 40.5309 29.9577 40.5609 29.6537 40.5664C29.4329 40.5732 29.1554 40.5739 28.9038 40.5739H28.7107H17.9185H17.606C17.5229 40.5739 17.4404 40.5737 17.3585 40.5731C17.0019 40.5734 16.6458 40.5502 16.2923 40.5037C16.2184 40.4934 16.1426 40.4907 16.0698 40.4766C15.7786 40.422 15.4965 40.3268 15.2318 40.1937C14.9949 40.0716 14.7768 39.9161 14.5842 39.7319C14.5651 39.714 14.5431 39.6997 14.5246 39.6814C14.3177 39.4743 14.1448 39.2358 14.0123 38.9747C13.8793 38.71 13.784 38.4278 13.7292 38.1366C13.6527 37.6698 13.62 37.1968 13.6318 36.7238C13.6318 36.6419 13.6318 36.5595 13.6318 36.4763V5.0979C13.6318 5.01463 13.6318 4.9322 13.6318 4.85027C13.6324 4.68878 13.638 4.52872 13.6425 4.36832C13.646 4.05633 13.6749 3.74514 13.7288 3.43783C13.7837 3.1467 13.8792 2.8647 14.0123 2.60005C14.2786 2.0742 14.7058 1.64703 15.2316 1.38067C15.4963 1.2476 15.7784 1.15237 16.0696 1.09776C16.3688 1.04328 16.6718 1.01321 16.9758 1.00784C17.1966 1.00102 17.4741 1.00026 17.7257 1.00026H17.9188H28.711H28.8683H29.0235C29.1065 1.00026 29.1889 1.00026 29.2712 1.0011C29.7026 0.993442 30.1339 1.02574 30.5594 1.09759C30.8506 1.1522 31.1327 1.24744 31.3975 1.3805C31.9235 1.64683 32.3508 2.07407 32.6172 2.60005C32.7502 2.8648 32.8455 3.14689 32.9002 3.43808C32.9768 3.90473 33.0094 4.37753 32.9977 4.85027V5.0979ZM32.1557 5.0979V4.97261V4.85238C32.1671 4.43308 32.1398 4.01362 32.0743 3.59932C32.0346 3.38489 31.965 3.1771 31.8675 2.98206C31.6817 2.61485 31.3834 2.31662 31.0162 2.13089C30.8212 2.03336 30.6135 1.96377 30.3991 1.92418C30.0246 1.86306 29.6454 1.83597 29.266 1.84326L29.0229 1.84225H28.8683H28.7904H17.9185H17.8259H17.7258C17.4828 1.84225 17.2149 1.84284 17.0017 1.84941C16.7431 1.85316 16.4853 1.87817 16.2308 1.92418C16.0163 1.9638 15.8085 2.03341 15.6135 2.13097C15.2464 2.31645 14.9483 2.61443 14.7626 2.98138C14.665 3.17662 14.5953 3.38465 14.5557 3.59932C14.5118 3.85336 14.488 4.11046 14.4845 4.36823C14.4795 4.52568 14.4748 4.68246 14.4742 4.85305V4.97758V5.09984V36.4763V36.5965V36.7217C14.4628 37.141 14.4901 37.5604 14.5557 37.9747C14.5953 38.1892 14.6649 38.397 14.7625 38.5921C14.9481 38.9593 15.2462 39.2574 15.6133 39.4431C15.8084 39.5407 16.0163 39.6104 16.2308 39.65C16.2471 39.6532 16.2651 39.653 16.2813 39.656C16.6394 39.7108 17.0014 39.7358 17.3636 39.7309L17.6062 39.7318H17.9182H28.8039H28.9041C29.1471 39.7318 29.4149 39.7312 29.6282 39.7246C29.8867 39.7208 30.1445 39.6958 30.399 39.6498C30.6135 39.6102 30.8213 39.5406 31.0164 39.4431C31.3832 39.2572 31.6812 38.9591 31.8668 38.5921C31.9645 38.3969 32.0341 38.1889 32.0737 37.9743C32.1395 37.5599 32.1669 37.1404 32.1557 36.721V36.6016V36.4742V5.0979Z" fill="#081C15" stroke="#081C15" stroke-width="0.5"/>
</svg>
