<svg width="32" height="28" viewBox="0 0 32 28" fill="none" xmlns="http://www.w3.org/2000/svg">
<path d="M12.1602 24.9597H1.28V2.55997H12.1602C12.0894 1.5941 12.2899 0.616314 13.0451 0H0.870467C0.374536 0.0495355 -0.00242027 0.468027 1.17008e-05 0.96639V26.675C0.00705163 27.1485 0.396744 27.5268 0.870339 27.5198H13.0449C12.2895 26.9031 12.0896 25.9255 12.1602 24.9597ZM9.59991 0.908854C10.1524 0.911286 10.1524 1.75128 9.59991 1.75365C9.04766 1.75121 9.04766 0.911158 9.59991 0.908854ZM9.59991 26.8414V26.8478C8.69995 26.8325 8.70008 25.4934 9.59991 25.4782C10.4991 25.4939 10.4989 26.8258 9.59991 26.8414ZM30.08 6.40862e-05H14.7202C13.6598 6.40862e-05 12.8002 0.859639 12.8002 1.92004V25.5998C12.8002 26.6599 13.6594 27.5192 14.7194 27.5197H30.08C31.1404 27.5198 32 26.6602 32 25.5998V1.92004C32 0.859639 31.1404 6.40862e-05 30.08 6.40862e-05ZM30.72 25.5998C30.72 25.9532 30.4334 26.2398 30.08 26.2398C26.948 26.2395 17.7034 26.24 14.7202 26.2398C14.3668 26.2398 14.0802 25.9532 14.0802 25.5998V1.92004C14.0802 1.56658 14.3668 1.28005 14.7202 1.28005C17.6574 1.27935 26.9985 1.28056 30.08 1.28005C30.4334 1.28005 30.72 1.56658 30.72 1.92004V25.5998Z" fill="#081C15"/>
</svg>
