<svg width="109" height="26" viewBox="0 0 109 26" fill="none" xmlns="http://www.w3.org/2000/svg">
<path d="M29 25L29 7.53777C29 4.47935 26.5207 2 23.4622 2L7.53777 2C4.47934 2 2 4.47935 2 7.53777L2 25" stroke="#081C15" stroke-width="3"/>
<rect x="11" y="5.18188" width="9" height="3.13636" rx="1.56818" fill="#081C15"/>
<path d="M45.0658 15.6772L41.5748 10.0952H41.2381L36.4181 3.16631H39.7319L43.1697 8.41169H43.5064L48.3265 15.6772H45.0658ZM36.1877 15.6772L40.8128 8.97876L42.9571 10.1838L39.3597 15.6772H36.1877ZM43.6127 9.7762L41.4685 8.57118L44.9418 3.16631H48.1138L43.6127 9.7762ZM53.0964 11.123V8.96104H55.79C56.1326 8.96104 56.4457 8.89015 56.7292 8.74838C57.0128 8.60662 57.2372 8.39987 57.4026 8.12815C57.568 7.85643 57.6507 7.52564 57.6507 7.13578C57.6507 6.75774 57.568 6.43286 57.4026 6.16114C57.2372 5.88942 57.0128 5.68267 56.7292 5.54091C56.4457 5.39914 56.1326 5.32826 55.79 5.32826H53.0964V3.16631H56.1976C56.9891 3.16631 57.7039 3.3258 58.3418 3.64477C58.9798 3.96375 59.4819 4.42449 59.8481 5.027C60.2261 5.6177 60.4152 6.32063 60.4152 7.13578C60.4152 7.95095 60.2261 8.65978 59.8481 9.26229C59.4819 9.85299 58.9798 10.3137 58.3418 10.6445C57.7039 10.9635 56.9891 11.123 56.1976 11.123H53.0964ZM50.9699 15.6772V3.16631H53.7521V15.6772H50.9699ZM65.5204 10.5205V8.46485H68.1608C68.7161 8.46485 69.1414 8.32308 69.4368 8.03955C69.7439 7.75602 69.8975 7.37206 69.8975 6.88769C69.8975 6.43876 69.7498 6.06663 69.4545 5.77128C69.1591 5.47593 68.7338 5.32826 68.1786 5.32826H65.5204V3.16631H68.4975C69.3245 3.16631 70.0511 3.3258 70.6772 3.64477C71.3034 3.95193 71.7936 4.38314 72.148 4.9384C72.5025 5.49365 72.6797 6.1316 72.6797 6.85225C72.6797 7.58471 72.5025 8.22857 72.148 8.78383C71.7936 9.32727 71.2974 9.75257 70.6595 10.0597C70.0215 10.3669 69.2714 10.5205 68.4089 10.5205H65.5204ZM63.3939 15.6772V3.16631H66.1761V15.6772H63.3939ZM70.1988 15.6772L66.3002 10.2901L68.852 9.59899L73.4948 15.6772H70.1988ZM76.1294 15.6772V3.16631H78.9116V15.6772H76.1294ZM78.2559 15.6772V13.2672H85.1139V15.6772H78.2559ZM78.2559 10.4496V8.12815H84.4937V10.4496H78.2559ZM78.2559 5.55863V3.16631H85.0253V5.55863H78.2559ZM91.8949 15.8722C90.8671 15.8722 89.9811 15.7068 89.2368 15.376C88.5043 15.0334 87.8309 14.5195 87.2166 13.8343L89.0241 12.0445C89.4258 12.5052 89.8688 12.8655 90.3532 13.1254C90.8494 13.3735 91.4224 13.4976 92.0721 13.4976C92.6628 13.4976 93.1177 13.3913 93.4366 13.1786C93.7674 12.966 93.9328 12.6706 93.9328 12.2926C93.9328 11.95 93.8265 11.6723 93.6138 11.4597C93.4012 11.247 93.1177 11.0639 92.7632 10.9103C92.4206 10.7568 92.0367 10.6091 91.6114 10.4673C91.1979 10.3255 90.7844 10.1661 90.3709 9.98885C89.9574 9.79982 89.5735 9.56945 89.2191 9.29773C88.8765 9.0142 88.5988 8.66569 88.3862 8.2522C88.1735 7.8269 88.0672 7.29527 88.0672 6.65732C88.0672 5.88942 88.2503 5.22784 88.6166 4.67258C88.9946 4.11733 89.5144 3.69794 90.176 3.4144C90.8376 3.11905 91.5996 2.97138 92.462 2.97138C93.3362 2.97138 94.1336 3.12496 94.8543 3.43212C95.5868 3.73928 96.1893 4.15868 96.6618 4.6903L94.8543 6.48011C94.4763 6.09025 94.0923 5.80081 93.7024 5.61179C93.3244 5.42277 92.8932 5.32826 92.4088 5.32826C91.9244 5.32826 91.5405 5.42277 91.257 5.61179C90.9734 5.789 90.8317 6.0489 90.8317 6.39151C90.8317 6.71048 90.938 6.97039 91.1506 7.17123C91.3633 7.36025 91.6409 7.52564 91.9835 7.66741C92.3379 7.80918 92.7219 7.95095 93.1354 8.09271C93.5607 8.23448 93.9801 8.39987 94.3936 8.5889C94.807 8.77792 95.1851 9.0201 95.5277 9.31545C95.8821 9.59899 96.1656 9.96522 96.3783 10.4141C96.5909 10.8513 96.6973 11.3947 96.6973 12.0445C96.6973 13.2377 96.272 14.1769 95.4214 14.8621C94.5708 15.5355 93.3953 15.8722 91.8949 15.8722ZM103.332 15.8722C102.305 15.8722 101.419 15.7068 100.674 15.376C99.9419 15.0334 99.2685 14.5195 98.6542 13.8343L100.462 12.0445C100.863 12.5052 101.306 12.8655 101.791 13.1254C102.287 13.3735 102.86 13.4976 103.51 13.4976C104.1 13.4976 104.555 13.3913 104.874 13.1786C105.205 12.966 105.37 12.6706 105.37 12.2926C105.37 11.95 105.264 11.6723 105.051 11.4597C104.839 11.247 104.555 11.0639 104.201 10.9103C103.858 10.7568 103.474 10.6091 103.049 10.4673C102.635 10.3255 102.222 10.1661 101.808 9.98885C101.395 9.79982 101.011 9.56945 100.657 9.29773C100.314 9.0142 100.036 8.66569 99.8238 8.2522C99.6111 7.8269 99.5048 7.29527 99.5048 6.65732C99.5048 5.88942 99.6879 5.22784 100.054 4.67258C100.432 4.11733 100.952 3.69794 101.614 3.4144C102.275 3.11905 103.037 2.97138 103.9 2.97138C104.774 2.97138 105.571 3.12496 106.292 3.43212C107.024 3.73928 107.627 4.15868 108.099 4.6903L106.292 6.48011C105.914 6.09025 105.53 5.80081 105.14 5.61179C104.762 5.42277 104.331 5.32826 103.846 5.32826C103.362 5.32826 102.978 5.42277 102.695 5.61179C102.411 5.789 102.269 6.0489 102.269 6.39151C102.269 6.71048 102.376 6.97039 102.588 7.17123C102.801 7.36025 103.078 7.52564 103.421 7.66741C103.776 7.80918 104.159 7.95095 104.573 8.09271C104.998 8.23448 105.418 8.39987 105.831 8.5889C106.245 8.77792 106.623 9.0201 106.965 9.31545C107.32 9.59899 107.603 9.96522 107.816 10.4141C108.029 10.8513 108.135 11.3947 108.135 12.0445C108.135 13.2377 107.71 14.1769 106.859 14.8621C106.008 15.5355 104.833 15.8722 103.332 15.8722Z" fill="#081C15"/>
<path d="M37.5876 22.7229V21.6419H38.9344C39.1057 21.6419 39.2623 21.6065 39.404 21.5356C39.5458 21.4647 39.658 21.3613 39.7407 21.2255C39.8234 21.0896 39.8648 20.9242 39.8648 20.7293C39.8648 20.5402 39.8234 20.3778 39.7407 20.2419C39.658 20.1061 39.5458 20.0027 39.404 19.9318C39.2623 19.8609 39.1057 19.8255 38.9344 19.8255H37.5876V18.7445H39.1382C39.534 18.7445 39.8914 18.8243 40.2103 18.9838C40.5293 19.1433 40.7803 19.3736 40.9635 19.6749C41.1525 19.9702 41.247 20.3217 41.247 20.7293C41.247 21.1368 41.1525 21.4913 40.9635 21.7925C40.7803 22.0879 40.5293 22.3182 40.2103 22.4836C39.8914 22.6431 39.534 22.7229 39.1382 22.7229H37.5876ZM36.5244 25V18.7445H37.9155V25H36.5244ZM45.9261 25V18.7445H47.3172V25H45.9261ZM49.7981 25V18.7445H51.1981V25H49.7981ZM46.759 22.3862V21.1812H50.2589V22.3862H46.759ZM59.283 25.1063C58.8104 25.1063 58.3733 25.0236 57.9716 24.8582C57.5759 24.6928 57.2273 24.4625 56.9261 24.1671C56.6248 23.8718 56.3915 23.5292 56.2261 23.1393C56.0607 22.7435 55.978 22.3182 55.978 21.8634C55.978 21.4027 56.0607 20.9774 56.2261 20.5875C56.3915 20.1976 56.6219 19.858 56.9172 19.5686C57.2126 19.2732 57.5581 19.0458 57.9539 18.8863C58.3556 18.7209 58.7927 18.6382 59.2652 18.6382C59.7319 18.6382 60.1631 18.7209 60.5589 18.8863C60.9605 19.0458 61.3091 19.2732 61.6044 19.5686C61.9057 19.858 62.139 20.2006 62.3044 20.5964C62.4698 20.9862 62.5525 21.4115 62.5525 21.8723C62.5525 22.3271 62.4698 22.7524 62.3044 23.1482C62.139 23.538 61.9086 23.8806 61.6133 24.176C61.3179 24.4654 60.9694 24.6928 60.5677 24.8582C60.172 25.0236 59.7437 25.1063 59.283 25.1063ZM59.2652 23.8393C59.6374 23.8393 59.9623 23.7566 60.2399 23.5912C60.5234 23.4258 60.742 23.1954 60.8956 22.9001C61.0491 22.5988 61.1259 22.2533 61.1259 21.8634C61.1259 21.5681 61.0816 21.3022 60.993 21.066C60.9044 20.8238 60.7774 20.617 60.612 20.4457C60.4466 20.2685 60.2488 20.1356 60.0184 20.047C59.7939 19.9525 59.5429 19.9052 59.2652 19.9052C58.8931 19.9052 58.5653 19.9879 58.2817 20.1533C58.0041 20.3128 57.7885 20.5402 57.6349 20.8356C57.4813 21.125 57.4046 21.4676 57.4046 21.8634C57.4046 22.1588 57.4489 22.4275 57.5375 22.6697C57.6261 22.9119 57.7501 23.1216 57.9096 23.2988C58.075 23.4701 58.2729 23.603 58.5033 23.6975C58.7336 23.792 58.9876 23.8393 59.2652 23.8393ZM67.3341 25V18.7445H68.3088L68.7252 19.9939V25H67.3341ZM71.6492 25L67.9632 20.2774L68.3088 18.7445L71.9947 23.4671L71.6492 25ZM71.6492 25L71.277 23.7507V18.7445H72.6681V25H71.6492ZM77.7742 25V18.7445H79.1653V25H77.7742ZM78.8375 25V23.795H82.2665V25H78.8375ZM78.8375 22.3862V21.2255H81.9563V22.3862H78.8375ZM78.8375 19.9407V18.7445H82.2222V19.9407H78.8375ZM87.1241 25V18.7445H88.5151V25H87.1241ZM88.1873 22.5457V21.3495H91.315V22.5457H88.1873ZM88.1873 19.9407V18.7445H91.4568V19.9407H88.1873ZM96.2489 25V18.7445H97.64V25H96.2489ZM106.713 25L104.967 22.209H104.799L102.389 18.7445H104.046L105.765 21.3672H105.933L108.343 25H106.713ZM102.274 25L104.586 21.6508L105.658 22.2533L103.86 25H102.274ZM105.986 22.0495L104.914 21.447L106.651 18.7445H108.237L105.986 22.0495Z" fill="black" fill-opacity="0.8"/>
</svg>
