<svg width="103" height="23" viewBox="0 0 103 23" fill="none" xmlns="http://www.w3.org/2000/svg">
<mask id="mask0_355_1610" style="mask-type:luminance" maskUnits="userSpaceOnUse" x="8" y="0" width="13" height="16">
<path d="M8.69629 0H20.0006V15.3622H8.69629V0Z" fill="white"/>
</mask>
<g mask="url(#mask0_355_1610)">
<mask id="mask1_355_1610" style="mask-type:luminance" maskUnits="userSpaceOnUse" x="6" y="-2" width="17" height="20">
<path d="M17.194 -1.90308L22.5178 13.3176L11.4909 17.1751L6.16602 1.95446L17.194 -1.90308Z" fill="white"/>
</mask>
<g mask="url(#mask1_355_1610)">
<mask id="mask2_355_1610" style="mask-type:luminance" maskUnits="userSpaceOnUse" x="8" y="0" width="12" height="16">
<path d="M19.8551 5.70672L17.0042 15.2458L8.82715 9.56425L11.6793 0.0251465L19.8551 5.70672Z" fill="white"/>
</mask>
<g mask="url(#mask2_355_1610)">
<mask id="mask3_355_1610" style="mask-type:luminance" maskUnits="userSpaceOnUse" x="6" y="-2" width="17" height="20">
<path d="M17.195 -1.90283L22.5188 13.3178L11.4919 17.1754L6.16699 1.9547L17.195 -1.90283Z" fill="white"/>
</mask>
<g mask="url(#mask3_355_1610)">
<path d="M18.6536 -3.41138L4.08398 1.68483L10.0305 18.6831L24.6001 13.5869L18.6536 -3.41138Z" fill="url(#paint0_linear_355_1610)"/>
</g>
</g>
</g>
</g>
<mask id="mask4_355_1610" style="mask-type:luminance" maskUnits="userSpaceOnUse" x="0" y="10" width="17" height="13">
<path d="M0 10.1448H16.2318V22.0287H0V10.1448Z" fill="white"/>
</mask>
<g mask="url(#mask4_355_1610)">
<mask id="mask5_355_1610" style="mask-type:luminance" maskUnits="userSpaceOnUse" x="0" y="8" width="17" height="16">
<path d="M0.136719 15.7211L10.7016 8.63892L16.013 16.5623L5.44918 23.6445L0.136719 15.7211Z" fill="white"/>
</mask>
<g mask="url(#mask5_355_1610)">
<mask id="mask6_355_1610" style="mask-type:luminance" maskUnits="userSpaceOnUse" x="0" y="10" width="17" height="12">
<path d="M8.06403 10.4094L0.140625 15.7208L8.09347 21.8745L16.0169 16.562L8.06403 10.4094Z" fill="white"/>
</mask>
<g mask="url(#mask6_355_1610)">
<mask id="mask7_355_1610" style="mask-type:luminance" maskUnits="userSpaceOnUse" x="0" y="8" width="17" height="16">
<path d="M0.138672 15.7213L10.7036 8.63916L16.0149 16.5626L5.45113 23.6447L0.138672 15.7213Z" fill="white"/>
</mask>
<g mask="url(#mask7_355_1610)">
<path d="M-5.16309 13.9653L5.06216 29.2177L21.3188 18.3199L11.0925 3.06641L-5.16309 13.9653Z" fill="url(#paint1_linear_355_1610)"/>
</g>
</g>
</g>
</g>
<mask id="mask8_355_1610" style="mask-type:luminance" maskUnits="userSpaceOnUse" x="3" y="0" width="6" height="8">
<path d="M3.76758 0.870117H8.69508V7.53673H3.76758V0.870117Z" fill="white"/>
</mask>
<g mask="url(#mask8_355_1610)">
<mask id="mask9_355_1610" style="mask-type:luminance" maskUnits="userSpaceOnUse" x="3" y="0" width="7" height="8">
<path d="M6.08088 0.871338L9.3689 4.82738L6.4013 7.29339L3.11328 3.33735L6.08088 0.871338Z" fill="white"/>
</mask>
<g mask="url(#mask9_355_1610)">
<mask id="mask10_355_1610" style="mask-type:luminance" maskUnits="userSpaceOnUse" x="3" y="0" width="6" height="8">
<path d="M8.54618 3.83869L6.08016 0.871094L3.93457 4.32668L6.40058 7.29315L8.54618 3.83869Z" fill="white"/>
</mask>
<g mask="url(#mask10_355_1610)">
<mask id="mask11_355_1610" style="mask-type:luminance" maskUnits="userSpaceOnUse" x="3" y="0" width="7" height="8">
<path d="M6.0799 0.871094L9.36792 4.82713L6.40032 7.29315L3.1123 3.33711L6.0799 0.871094Z" fill="white"/>
</mask>
<g mask="url(#mask11_355_1610)">
<path d="M6.66174 -1.39551L0.776367 3.49463L5.81822 9.56116L11.7025 4.66989L6.66174 -1.39551Z" fill="#081C15"/>
</g>
</g>
</g>
</g>
<mask id="mask12_355_1610" style="mask-type:luminance" maskUnits="userSpaceOnUse" x="1" y="4" width="6" height="8">
<path d="M1.16016 4.63794H6.08766V11.3046H1.16016V4.63794Z" fill="white"/>
</mask>
<g mask="url(#mask12_355_1610)">
<mask id="mask13_355_1610" style="mask-type:luminance" maskUnits="userSpaceOnUse" x="0" y="4" width="7" height="8">
<path d="M3.83826 11.0645L0.568359 7.09265L3.54841 4.64136L6.81718 8.61325L3.83826 11.0645Z" fill="white"/>
</mask>
<g mask="url(#mask13_355_1610)">
<mask id="mask14_355_1610" style="mask-type:luminance" maskUnits="userSpaceOnUse" x="1" y="4" width="5" height="8">
<path d="M1.38574 8.08563L3.83817 11.0645L5.99961 7.62028L3.54832 4.64136L1.38574 8.08563Z" fill="white"/>
</mask>
<g mask="url(#mask14_355_1610)">
<mask id="mask15_355_1610" style="mask-type:luminance" maskUnits="userSpaceOnUse" x="0" y="4" width="7" height="8">
<path d="M3.83924 11.0643L0.569336 7.09241L3.54939 4.64111L6.81816 8.613L3.83924 11.0643Z" fill="white"/>
</mask>
<g mask="url(#mask15_355_1610)">
<path d="M3.25117 13.3288L9.15352 8.47041L4.13771 2.37671L-1.76465 7.23514L3.25117 13.3288Z" fill="#081C15"/>
</g>
</g>
</g>
</g>
<path d="M36.0649 18.0144L32.2249 11.6944H31.8649L26.4649 3.8344H30.7249L34.4849 9.7944H34.8449L40.2649 18.0144H36.0649ZM26.2249 18.0144L31.3849 10.4344L34.2049 11.7744L30.3049 18.0144H26.2249ZM34.9249 11.3744L32.1049 10.0144L35.9249 3.8344H40.0049L34.9249 11.3744ZM44.3041 12.9344V10.2744H47.1041C47.4508 10.2744 47.7641 10.2077 48.0441 10.0744C48.3374 9.92774 48.5708 9.7144 48.7441 9.4344C48.9174 9.1544 49.0041 8.80774 49.0041 8.3944C49.0041 7.98107 48.9174 7.6344 48.7441 7.3544C48.5708 7.06107 48.3374 6.84774 48.0441 6.7144C47.7641 6.56774 47.4508 6.4944 47.1041 6.4944H44.3041V3.8344H47.7241C48.6308 3.8344 49.4508 4.02107 50.1841 4.3944C50.9174 4.7544 51.4974 5.2744 51.9241 5.9544C52.3508 6.62107 52.5641 7.4344 52.5641 8.3944C52.5641 9.32774 52.3508 10.1411 51.9241 10.8344C51.4974 11.5144 50.9174 12.0344 50.1841 12.3944C49.4508 12.7544 48.6308 12.9344 47.7241 12.9344H44.3041ZM41.4641 18.0144V3.8344H45.0441V18.0144H41.4641ZM56.9799 12.2744V9.7144H59.6799C60.2665 9.7144 60.7132 9.5744 61.0199 9.2944C61.3399 9.00107 61.4999 8.60774 61.4999 8.1144C61.4999 7.6344 61.3399 7.24774 61.0199 6.9544C60.7132 6.64774 60.2665 6.4944 59.6799 6.4944H56.9799V3.8344H60.1799C61.1399 3.8344 61.9799 4.0144 62.6999 4.3744C63.4332 4.7344 64.0065 5.22774 64.4199 5.8544C64.8332 6.48107 65.0399 7.2144 65.0399 8.0544C65.0399 8.8944 64.8266 9.6344 64.3999 10.2744C63.9865 10.9011 63.4065 11.3944 62.6599 11.7544C61.9132 12.1011 61.0399 12.2744 60.0399 12.2744H56.9799ZM54.1399 18.0144V3.8344H57.7199V18.0144H54.1399ZM61.8199 18.0144L57.6999 11.9344L60.9199 11.1544L65.9599 18.0144H61.8199ZM67.1282 18.0144V3.8344H70.7082V18.0144H67.1282ZM69.9682 18.0144V14.9944H77.6482V18.0144H69.9682ZM69.9682 12.2544V9.3144H76.9282V12.2544H69.9682ZM69.9682 6.8544V3.8344H77.5282V6.8544H69.9682ZM83.7557 18.2344C82.569 18.2344 81.5357 18.0544 80.6557 17.6944C79.789 17.3344 78.9957 16.7677 78.2757 15.9944L80.5357 13.7144C81.029 14.2344 81.5557 14.6344 82.1157 14.9144C82.6757 15.1811 83.309 15.3144 84.0157 15.3144C84.6157 15.3144 85.0757 15.2144 85.3957 15.0144C85.729 14.8011 85.8957 14.5144 85.8957 14.1544C85.8957 13.8211 85.7757 13.5477 85.5357 13.3344C85.2957 13.1077 84.9757 12.9144 84.5757 12.7544C84.189 12.5811 83.7557 12.4211 83.2757 12.2744C82.809 12.1144 82.3357 11.9277 81.8557 11.7144C81.389 11.4877 80.9557 11.2144 80.5557 10.8944C80.169 10.5744 79.8557 10.1744 79.6157 9.6944C79.3757 9.2144 79.2557 8.62107 79.2557 7.9144C79.2557 7.00774 79.469 6.2344 79.8957 5.5944C80.3357 4.9544 80.9423 4.46107 81.7157 4.1144C82.489 3.76774 83.389 3.5944 84.4157 3.5944C85.4423 3.5944 86.389 3.76774 87.2557 4.1144C88.1223 4.46107 88.8357 4.94107 89.3957 5.5544L87.1157 7.8144C86.689 7.38774 86.2557 7.06774 85.8157 6.8544C85.3757 6.64107 84.8957 6.5344 84.3757 6.5344C83.8823 6.5344 83.4957 6.62107 83.2157 6.7944C82.9357 6.96774 82.7957 7.2144 82.7957 7.5344C82.7957 7.8544 82.9157 8.1144 83.1557 8.3144C83.3957 8.5144 83.709 8.6944 84.0957 8.8544C84.4957 9.00107 84.929 9.1544 85.3957 9.3144C85.8757 9.4744 86.349 9.66107 86.8157 9.8744C87.2823 10.0877 87.709 10.3611 88.0957 10.6944C88.4957 11.0277 88.8157 11.4477 89.0557 11.9544C89.2957 12.4611 89.4157 13.0744 89.4157 13.7944C89.4157 15.2077 88.9157 16.3011 87.9157 17.0744C86.929 17.8477 85.5423 18.2344 83.7557 18.2344ZM95.3182 18.2344C94.1315 18.2344 93.0982 18.0544 92.2182 17.6944C91.3515 17.3344 90.5582 16.7677 89.8382 15.9944L92.0982 13.7144C92.5915 14.2344 93.1182 14.6344 93.6782 14.9144C94.2382 15.1811 94.8715 15.3144 95.5782 15.3144C96.1782 15.3144 96.6382 15.2144 96.9582 15.0144C97.2915 14.8011 97.4582 14.5144 97.4582 14.1544C97.4582 13.8211 97.3382 13.5477 97.0982 13.3344C96.8582 13.1077 96.5382 12.9144 96.1382 12.7544C95.7515 12.5811 95.3182 12.4211 94.8382 12.2744C94.3715 12.1144 93.8982 11.9277 93.4182 11.7144C92.9515 11.4877 92.5182 11.2144 92.1182 10.8944C91.7315 10.5744 91.4182 10.1744 91.1782 9.6944C90.9382 9.2144 90.8182 8.62107 90.8182 7.9144C90.8182 7.00774 91.0315 6.2344 91.4582 5.5944C91.8982 4.9544 92.5048 4.46107 93.2782 4.1144C94.0515 3.76774 94.9515 3.5944 95.9782 3.5944C97.0048 3.5944 97.9515 3.76774 98.8182 4.1144C99.6848 4.46107 100.398 4.94107 100.958 5.5544L98.6782 7.8144C98.2515 7.38774 97.8182 7.06774 97.3782 6.8544C96.9382 6.64107 96.4582 6.5344 95.9382 6.5344C95.4448 6.5344 95.0582 6.62107 94.7782 6.7944C94.4982 6.96774 94.3582 7.2144 94.3582 7.5344C94.3582 7.8544 94.4782 8.1144 94.7182 8.3144C94.9582 8.5144 95.2715 8.6944 95.6582 8.8544C96.0582 9.00107 96.4915 9.1544 96.9582 9.3144C97.4382 9.4744 97.9115 9.66107 98.3782 9.8744C98.8448 10.0877 99.2715 10.3611 99.6582 10.6944C100.058 11.0277 100.378 11.4477 100.618 11.9544C100.858 12.4611 100.978 13.0744 100.978 13.7944C100.978 15.2077 100.478 16.3011 99.4782 17.0744C98.4915 17.8477 97.1048 18.2344 95.3182 18.2344Z" fill="#081C15"/>
<defs>
<linearGradient id="paint0_linear_355_1610" x1="18.6828" y1="12.5991" x2="12.6006" y2="21.7224" gradientUnits="userSpaceOnUse">
<stop stop-color="#081C15"/>
<stop offset="1" stop-color="#3AF0B0"/>
</linearGradient>
<linearGradient id="paint1_linear_355_1610" x1="8.07787" y1="3.06641" x2="7.614" y2="16.7804" gradientUnits="userSpaceOnUse">
<stop stop-color="#8DA29A"/>
<stop offset="1" stop-color="#081C15"/>
</linearGradient>
</defs>
</svg>
