<svg width="110" height="25" viewBox="0 0 110 25" fill="none" xmlns="http://www.w3.org/2000/svg">
<path d="M29 25L29 7.53777C29 4.47935 26.5207 2 23.4622 2L7.53777 2C4.47934 2 2 4.47935 2 7.53777L2 25" stroke="#081C15" stroke-width="3"/>
<rect x="11" y="5.18188" width="9" height="3.13636" rx="1.56818" fill="#081C15"/>
<path d="M36.8788 15.6772V7.0649H39.5901V15.6772H36.8788ZM38.2433 5.8776C37.818 5.8776 37.4636 5.73584 37.1801 5.4523C36.9083 5.15695 36.7725 4.80254 36.7725 4.38905C36.7725 3.96375 36.9083 3.60933 37.1801 3.3258C37.4636 3.04226 37.818 2.9005 38.2433 2.9005C38.6686 2.9005 39.0171 3.04226 39.2888 3.3258C39.5606 3.60933 39.6964 3.96375 39.6964 4.38905C39.6964 4.80254 39.5606 5.15695 39.2888 5.4523C39.0171 5.73584 38.6686 5.8776 38.2433 5.8776ZM45.2916 11.123V8.96104H47.9852C48.3278 8.96104 48.6409 8.89015 48.9244 8.74838C49.208 8.60662 49.4324 8.39987 49.5978 8.12815C49.7632 7.85643 49.8459 7.52564 49.8459 7.13578C49.8459 6.75774 49.7632 6.43286 49.5978 6.16114C49.4324 5.88942 49.208 5.68267 48.9244 5.54091C48.6409 5.39914 48.3278 5.32826 47.9852 5.32826H45.2916V3.16631H48.3928C49.1843 3.16631 49.8991 3.3258 50.537 3.64477C51.175 3.96375 51.6771 4.42449 52.0433 5.027C52.4213 5.6177 52.6104 6.32063 52.6104 7.13578C52.6104 7.95095 52.4213 8.65978 52.0433 9.26229C51.6771 9.85299 51.175 10.3137 50.537 10.6445C49.8991 10.9635 49.1843 11.123 48.3928 11.123H45.2916ZM43.1651 15.6772V3.16631H45.9473V15.6772H43.1651ZM55.5891 15.6772V3.16631H58.3713V15.6772H55.5891ZM63.3332 15.6772V3.16631H66.1331V15.6772H63.3332ZM57.2549 10.4496V8.03955H64.2546V10.4496H57.2549ZM75.9233 15.8899C74.9782 15.8899 74.1039 15.7245 73.3006 15.3937C72.5091 15.0629 71.812 14.6022 71.2095 14.0115C70.607 13.4208 70.1404 12.7356 69.8096 11.9559C69.4788 11.1643 69.3134 10.3137 69.3134 9.40406C69.3134 8.48257 69.4788 7.63197 69.8096 6.85225C70.1404 6.07253 70.6011 5.39323 71.1918 4.81435C71.7825 4.22365 72.4736 3.76882 73.2652 3.44984C74.0685 3.11905 74.9427 2.95366 75.8878 2.95366C76.8211 2.95366 77.6836 3.11905 78.4751 3.44984C79.2784 3.76882 79.9755 4.22365 80.5662 4.81435C81.1687 5.39323 81.6353 6.07844 81.9661 6.86997C82.2969 7.64969 82.4623 8.50029 82.4623 9.42178C82.4623 10.3314 82.2969 11.1821 81.9661 11.9736C81.6353 12.7533 81.1746 13.4385 80.5839 14.0292C79.9932 14.6081 79.2962 15.0629 78.4928 15.3937C77.7013 15.7245 76.8448 15.8899 75.9233 15.8899ZM75.8878 13.3558C76.6321 13.3558 77.2819 13.1904 77.8371 12.8596C78.4042 12.5288 78.8413 12.0681 79.1485 11.4774C79.4556 10.8749 79.6092 10.1838 79.6092 9.40406C79.6092 8.81336 79.5206 8.28173 79.3434 7.80918C79.1662 7.32481 78.9122 6.91132 78.5814 6.56872C78.2506 6.2143 77.8549 5.94849 77.3941 5.77128C76.9452 5.58225 76.4431 5.48774 75.8878 5.48774C75.1436 5.48774 74.4879 5.65314 73.9208 5.98393C73.3656 6.3029 72.9344 6.75774 72.6272 7.34844C72.32 7.92732 72.1665 8.61252 72.1665 9.40406C72.1665 9.99475 72.2551 10.5323 72.4323 11.0167C72.6095 11.501 72.8576 11.9204 73.1765 12.2748C73.5073 12.6174 73.9031 12.8833 74.3638 13.0723C74.8246 13.2613 75.3326 13.3558 75.8878 13.3558ZM85.6461 15.6772V3.16631H87.5954L88.4283 5.66495V15.6772H85.6461ZM94.2762 15.6772L86.9043 6.23202L87.5954 3.16631L94.9673 12.6115L94.2762 15.6772ZM94.2762 15.6772L93.5319 13.1786V3.16631H96.3141V15.6772H94.2762ZM100.147 15.6772V3.16631H102.929V15.6772H100.147ZM102.273 15.6772V13.2672H109.131V15.6772H102.273ZM102.273 10.4496V8.12815H108.511V10.4496H102.273ZM102.273 5.55863V3.16631H109.043V5.55863H102.273Z" fill="#081C15"/>
<path d="M36.5244 25V18.7445H37.9155V25H36.5244ZM37.5876 22.5457V21.3495H40.7154V22.5457H37.5876ZM37.5876 19.9407V18.7445H40.8571V19.9407H37.5876ZM44.8518 25V18.7445H46.2429V25H44.8518ZM54.5183 25L52.7728 22.209H52.6044L50.1944 18.7445H51.8513L53.5702 21.3672H53.7386L56.1486 25H54.5183ZM50.0792 25L52.3918 21.6508L53.4639 22.2533L51.6652 25H50.0792ZM53.7917 22.0495L52.7196 21.447L54.4562 18.7445H56.0423L53.7917 22.0495ZM65.8355 25V23.919H67.3063C67.578 23.919 67.7907 23.8393 67.9443 23.6798C68.0978 23.5203 68.1746 23.3254 68.1746 23.095C68.1746 22.9355 68.1392 22.7938 68.0683 22.6697C67.9974 22.5457 67.897 22.4482 67.767 22.3773C67.643 22.3064 67.4894 22.271 67.3063 22.271H65.8355V21.2166H67.1911C67.4215 21.2166 67.6076 21.1605 67.7493 21.0482C67.8911 20.9301 67.962 20.7529 67.962 20.5166C67.962 20.2862 67.8911 20.1149 67.7493 20.0027C67.6076 19.8846 67.4215 19.8255 67.1911 19.8255H65.8355V18.7445H67.4569C67.8586 18.7445 68.1983 18.8184 68.4759 18.966C68.7594 19.1137 68.975 19.3116 69.1227 19.5597C69.2704 19.8078 69.3442 20.0825 69.3442 20.3837C69.3442 20.7677 69.2202 21.0925 68.9721 21.3584C68.724 21.6242 68.3577 21.8073 67.8734 21.9077L67.9088 21.4381C68.4345 21.5385 68.8392 21.7423 69.1227 22.0495C69.4121 22.3566 69.5569 22.7347 69.5569 23.1836C69.5569 23.5262 69.4712 23.8363 69.2999 24.114C69.1345 24.3857 68.8923 24.6013 68.5733 24.7608C68.2603 24.9203 67.8822 25 67.4392 25H65.8355ZM64.7722 25V18.7445H66.1456V25H64.7722ZM75.2214 22.6697L72.8113 18.7445H74.4239L76.2758 21.9166H75.2391L77.0909 18.7445H78.6681L76.2403 22.6697H75.2214ZM75.053 25V22.0318H76.4441V25H75.053ZM90.9897 25L89.2442 22.209H89.0758L86.6658 18.7445H88.3227L90.0416 21.3672H90.21L92.62 25H90.9897ZM86.5506 25L88.8632 21.6508L89.9353 22.2533L88.1366 25H86.5506ZM90.2631 22.0495L89.191 21.447L90.9277 18.7445H92.5137L90.2631 22.0495ZM97.3973 22.7229V21.6419H98.7441C98.9154 21.6419 99.0719 21.6065 99.2137 21.5356C99.3555 21.4647 99.4677 21.3613 99.5504 21.2255C99.6331 21.0896 99.6744 20.9242 99.6744 20.7293C99.6744 20.5402 99.6331 20.3778 99.5504 20.2419C99.4677 20.1061 99.3555 20.0027 99.2137 19.9318C99.0719 19.8609 98.9154 19.8255 98.7441 19.8255H97.3973V18.7445H98.9479C99.3437 18.7445 99.701 18.8243 100.02 18.9838C100.339 19.1433 100.59 19.3736 100.773 19.6749C100.962 19.9702 101.057 20.3217 101.057 20.7293C101.057 21.1368 100.962 21.4913 100.773 21.7925C100.59 22.0879 100.339 22.3182 100.02 22.4836C99.701 22.6431 99.3437 22.7229 98.9479 22.7229H97.3973ZM96.3341 25V18.7445H97.7252V25H96.3341ZM104.938 25V18.7445H106.329V25H104.938ZM106.002 22.5457V21.3495H109.129V22.5457H106.002ZM106.002 19.9407V18.7445H109.271V19.9407H106.002Z" fill="black" fill-opacity="0.8"/>
</svg>
